<svg width="257" height="260" viewBox="0 0 257 260" fill="none" xmlns="http://www.w3.org/2000/svg">
<path d="M121 37.0001H204V236H121V37.0001Z" fill="#82A9FF" fill-opacity="0.21"/>
<g clip-path="url(#clip0)">
<path d="M70.5057 79.0001C84.5858 79.0001 96 67.4901 96 53.2917C96 39.0933 84.5858 27.5833 70.5057 27.5833C56.4256 27.5833 45.0114 39.0933 45.0114 53.2917C45.0114 67.4901 56.4256 79.0001 70.5057 79.0001Z" fill="#F3F2FF"/>
<path d="M70.5057 53.2916L72.6404 78.9078C71.939 78.9693 71.2071 79.0001 70.5057 79.0001C56.4168 79.0001 45.0114 67.4989 45.0114 53.2916H70.5057Z" fill="#B5B9FF"/>
<path d="M70.5057 53.2917H45.0114C45.0114 48.6174 46.2618 44.2199 48.4269 40.4375L70.5057 53.2917Z" fill="#D9DAFF"/>
<path d="M70.2618 53.7222L45.9568 39.5764L46.2008 39.1458C48.6709 34.8406 52.2389 31.2734 56.5083 28.7825C60.6252 26.3839 65.413 25.0001 70.5057 25.0001H70.9937V54.1219L70.2618 53.7222ZM47.2681 39.2074L70.0178 52.4613V25.9841C65.2605 26.0764 60.8081 27.3679 56.9657 29.6128C53.0013 31.9192 49.6468 35.2404 47.2681 39.2074Z" fill="white"/>
<path d="M55.3494 35.794L46.5667 30.6892H12.5032V29.8281H46.7802L55.7763 35.0559L55.3494 35.794Z" fill="#EEEDFF"/>
<path d="M46.8412 51.1389L39.8577 49.2631H12.4117V48.402H39.9797L47.0546 50.3086L46.8412 51.1389Z" fill="#EEEDFF"/>
<path d="M53.1842 70.1128L50.6226 72.6959H11.8018V71.8656H50.2872L52.6048 69.5285L53.1842 70.1128Z" fill="#EEEDFF"/>
<path d="M1.06734 27.2758H4.94028C5.18424 27.2758 5.39771 27.491 5.39771 27.737V31.6425C5.39771 31.8885 5.18424 32.1038 4.94028 32.1038H1.06734C0.823378 32.1038 0.609909 31.8885 0.609909 31.6425V27.737C0.609909 27.491 0.823378 27.2758 1.06734 27.2758Z" fill="#EEEDFF"/>
<path d="M6.58704 27.2758H10.46C10.7039 27.2758 10.9174 27.491 10.9174 27.737V31.6425C10.9174 31.8885 10.7039 32.1038 10.46 32.1038H6.58704C6.34308 32.1038 6.12961 31.8885 6.12961 31.6425V27.737C6.12961 27.491 6.31258 27.2758 6.58704 27.2758Z" fill="#EEEDFF"/>
<path d="M1.76874 46.7107H5.64168C5.88564 46.7107 6.09911 46.926 6.09911 47.172V51.0774C6.09911 51.3234 5.88564 51.5387 5.64168 51.5387H1.76874C1.52478 51.5387 1.31131 51.3234 1.31131 51.0774V47.172C1.31131 46.926 1.52478 46.7107 1.76874 46.7107Z" fill="#D9DAFF"/>
<path d="M0.457433 69.3441H4.33037C4.57433 69.3441 4.7878 69.5593 4.7878 69.8053V73.7108C4.7878 73.9568 4.57433 74.1721 4.33037 74.1721H0.457433C0.213469 74.1721 0 73.9568 0 73.7108V69.8053C0 69.5593 0.213469 69.3441 0.457433 69.3441Z" fill="#B5B9FF"/>
<path d="M5.97713 69.3441H9.85007C10.094 69.3441 10.3075 69.5593 10.3075 69.8053V73.7108C10.3075 73.9568 10.094 74.1721 9.85007 74.1721H5.97713C5.73317 74.1721 5.5197 73.9568 5.5197 73.7108V69.8053C5.5197 69.5593 5.70267 69.3441 5.97713 69.3441Z" fill="#B5B9FF"/>
</g>
<g clip-path="url(#clip1)">
<path d="M137.208 67.0565C140.576 66.9616 143.377 69.622 143.473 73.0063C143.548 75.6937 141.879 78.0319 139.526 78.945C142.023 81.365 143.654 84.7059 143.76 88.4883C143.847 91.5739 142.887 94.44 141.268 96.7768C141.367 96.774 141.515 96.7698 141.614 96.767C149.044 96.5576 155.258 102.459 155.468 109.924C155.678 117.389 149.807 123.631 142.377 123.841C134.948 124.05 128.734 118.149 128.524 110.684C128.438 107.648 129.35 104.833 130.922 102.547C130.773 102.551 130.624 102.556 130.476 102.56C122.896 102.724 116.632 96.7739 116.418 89.2092C116.205 81.6444 122.125 75.3513 129.653 75.139C130.297 75.1209 130.943 75.1525 131.589 75.2339C131.374 74.6423 131.258 74.0478 131.239 73.3511C131.193 69.9655 133.84 67.1515 137.208 67.0565ZM159.733 97.7007C161.616 97.6477 163.144 99.0988 163.197 100.99C163.25 102.881 161.806 104.416 159.924 104.469C158.042 104.522 156.514 103.071 156.461 101.18C156.407 99.2887 157.851 97.7538 159.733 97.7007ZM151.121 126.284C152.508 126.245 153.679 127.357 153.719 128.751C153.758 130.144 152.651 131.321 151.264 131.36C149.877 131.399 148.706 130.287 148.666 128.893C148.627 127.5 149.734 126.323 151.121 126.284Z" fill="#DBD9FF"/>
<path d="M185.825 47.357L174.365 50.5191C174.365 50.5191 156.846 63.8632 138.412 90.4321L139.057 113.325C153.588 94.238 170.981 74.6715 188.064 63.4814L185.825 47.357Z" fill="#DBD9FF"/>
<path d="M234.952 -2.27223e-05C234.952 -2.27223e-05 236.272 20.4337 203.896 51.8284C203.896 51.8284 203.919 61.4406 202.475 62.9755C201.031 64.5105 192.723 72.2158 192.723 72.2158C192.723 72.2158 191.401 72.8009 191.023 71.7158C190.646 70.6307 188.911 61.8636 188.911 61.8636L188.066 63.5311C188.066 63.5311 185.52 64.6488 180.373 59.6637C180.373 59.6637 178.601 61.8554 176.668 61.8601C176.565 59.9703 178.641 58.0191 178.641 58.0191C173.398 53.1363 174.365 50.5191 174.365 50.5191L175.974 49.5772C175.974 49.5772 167.116 48.3326 166.066 48.0136C164.967 47.6959 165.474 46.3368 165.474 46.3368C165.474 46.3368 172.662 37.5673 174.106 36.0324C175.549 34.4975 185.102 33.9792 185.102 33.9792C214.423 -0.2681 234.952 -2.27223e-05 234.952 -2.27223e-05Z" fill="white"/>
<path d="M234.952 -7.9503e-07C234.952 -7.9503e-07 236.271 20.4337 203.895 51.8285C203.895 51.8285 203.919 61.4406 202.475 62.9756C201.031 64.5105 192.722 72.2158 192.722 72.2158C192.722 72.2158 191.4 72.8009 191.023 71.7158C190.645 70.6307 188.911 61.8637 188.911 61.8637L188.066 63.5311C188.066 63.5311 186.401 64.2754 183.064 61.9289C210.976 49.786 234.952 -7.9503e-07 234.952 -7.9503e-07Z" fill="#DBD9FF"/>
<path d="M189.228 60.8088C187.025 60.0242 184.808 58.7419 182.827 57.0544C188.454 50.9189 196.683 40.3769 196.683 40.3769C191.117 45.1658 184.563 51.8255 181.095 55.4098C179.359 53.6159 177.911 51.4652 176.951 49.0517L175.973 49.5275L174.363 50.4694C174.363 50.4694 173.396 53.0866 178.64 57.9694C178.64 57.9694 176.562 59.8708 176.666 61.8104C178.549 61.8071 180.371 59.614 180.371 59.614C185.518 64.5991 188.064 63.4814 188.064 63.4814L188.91 61.8139L189.228 60.8088Z" fill="#6DED02"/>
<path d="M189.228 60.8087L188.911 61.8636C188.911 61.8636 190.647 70.6805 191.023 71.7158C191.4 72.8009 192.722 72.2158 192.722 72.2158C192.722 72.2158 201.031 64.5105 202.475 62.9755C203.919 61.4406 203.895 51.8284 203.895 51.8284C201.098 54.5969 190.928 61.3087 190.928 61.3087C190.329 61.1762 189.779 60.9925 189.228 60.8087Z" fill="#6DED02"/>
<path d="M176.362 47.5242C177.355 44.0595 185.052 33.9807 185.052 33.9807C185.052 33.9807 175.499 34.499 174.056 36.0339C172.612 37.5688 165.424 46.3383 165.424 46.3383C165.424 46.3383 164.917 47.6974 166.016 48.0151C167.116 48.3327 175.925 49.5787 175.925 49.5787L176.903 49.1028C176.738 48.5596 176.525 48.0177 176.362 47.5242Z" fill="#6DED02"/>
<path d="M216.01 6.80964C220.701 13.2022 225.768 17.0938 229.247 19.1873C235.399 7.06006 234.952 -9.43525e-06 234.952 -9.43525e-06C234.952 -9.43525e-06 227.861 -0.0989774 216.01 6.80964Z" fill="#6DED02"/>
<path d="M225.659 16.7482C226.976 17.757 228.139 18.571 229.198 19.1887C235.399 7.06007 234.952 -3.74835e-06 234.952 -3.74835e-06C234.952 -3.74835e-06 231.486 7.17036 225.659 16.7482Z" fill="#2F70FE"/>
<path d="M207.548 35.4384C211.104 35.3382 213.905 32.3603 213.804 28.7871C213.703 25.2139 210.739 22.3985 207.183 22.4987C203.627 22.599 200.826 25.5769 200.926 29.1501C201.027 32.7233 203.992 35.5387 207.548 35.4384Z" fill="#6DED02"/>
<path d="M207.514 34.244C210.414 34.1623 212.698 31.7342 212.615 28.8207C212.533 25.9071 210.116 23.6115 207.217 23.6932C204.317 23.775 202.033 26.2031 202.115 29.1166C202.197 32.0301 204.614 34.3258 207.514 34.244Z" fill="white"/>
<path d="M210.386 25.3472C212.474 27.3304 212.568 30.6649 210.597 32.8124C210.019 33.4263 209.289 33.8952 208.503 34.1664C209.488 33.9394 210.465 33.4138 211.187 32.6463C213.16 30.5486 213.066 27.2141 210.976 25.1811C209.499 23.7783 207.456 23.3877 205.64 24.0365C207.314 23.6407 209.062 24.0895 210.386 25.3472Z" fill="#DBD9FF"/>
<path d="M212.102 33.4673C209.648 36.0766 205.537 36.1925 202.939 33.7255C201.462 32.3228 200.813 30.3986 200.91 28.553C200.425 30.7083 201.085 33.0307 202.768 34.6767C205.365 37.1437 209.476 37.0278 211.931 34.4184C212.989 33.2928 213.594 31.8812 213.702 30.4337C213.484 31.4858 212.919 32.5477 212.102 33.4673Z" fill="#DBD9FF"/>
<path d="M184.753 58.5441L197.16 39.7158L195.813 41.1982C196.104 40.941 196.394 40.6837 196.684 40.4265C196.684 40.4265 188.454 50.9188 182.829 57.1041C183.437 57.585 184.095 58.0646 184.753 58.5441Z" fill="#DBD9FF"/>
<path d="M181.787 34.2221L173.185 49.1079C174.778 49.3619 176.022 49.526 176.022 49.526L177 49.0502C176.788 48.5581 176.624 48.0148 176.46 47.4716C177.453 44.0069 185.149 33.928 185.149 33.928C185.149 33.928 183.617 34.0709 181.787 34.2221Z" fill="#2F70FE"/>
<path d="M203.895 51.8285C201.098 54.5969 190.928 61.3087 190.928 61.3087C190.379 61.1748 189.828 60.9911 189.278 60.8074L188.96 61.8623C188.96 61.8623 189.366 63.9427 189.825 66.1711L203.868 54.3694C203.875 52.875 203.895 51.8285 203.895 51.8285Z" fill="#2F70FE"/>
<path d="M176.553 33.1742C176.553 33.1742 153.051 52.3152 141.718 70.5653C141.768 70.564 150.411 48.3552 176.553 33.1742Z" fill="white"/>
</g>
<path fill-rule="evenodd" clip-rule="evenodd" d="M155.459 234.549C168.476 237.978 190.842 239.13 219.322 238.952C245.754 238.972 256.344 241.689 255.948 246.463C252.881 253.867 209.181 257.652 134.18 257.809C72.2648 258.002 43.4015 253.564 35.0642 245.892C22.4019 232.679 115.54 224.209 155.459 234.549Z" fill="url(#paint0_linear)"/>
<g clip-path="url(#clip2)">
<path d="M128.51 15.0365C128.51 15.0365 139.394 13.5226 141.58 12.0088C141.58 12.0088 146.099 12.0088 146.487 14.1086C146.487 14.1086 143.864 17.2828 147.168 22.2638C147.168 22.2638 147.653 20.0663 149.646 19.871L149.354 12.1064C149.354 12.1064 149.84 6.97892 145.321 4.92791C140.803 2.87691 130.891 4.63491 128.17 7.76026L127.15 10.7879H126.324C126.324 10.7391 125.109 14.597 128.51 15.0365Z" fill="url(#paint1_linear)"/>
<path d="M146.536 14.0598C146.536 14.0598 143.912 17.234 147.216 22.215C147.216 22.215 147.702 20.0175 149.694 19.8221L149.403 12.5948C147.556 12.3506 146.536 14.0598 146.536 14.0598Z" fill="#4F4387"/>
<path d="M135.652 43.7017C135.772 43.862 135.772 43.862 135.772 43.8619L135.773 43.8616L135.774 43.8604L135.781 43.8557L135.805 43.8371L135.902 43.7646C135.987 43.701 136.111 43.6075 136.27 43.4877C136.587 43.2482 137.041 42.9036 137.589 42.4832C138.686 41.6425 140.158 40.4984 141.663 39.2854C143.167 38.0728 144.706 36.7895 145.934 35.6707C146.547 35.1114 147.085 34.5912 147.503 34.1401C147.787 33.8334 148.023 33.551 148.189 33.3052C148.732 34.1979 149.41 35.0534 150.122 35.8997C150.083 35.9564 150.031 36.0319 149.967 36.1255C149.81 36.3573 149.581 36.7006 149.295 37.1478C148.724 38.0391 147.924 39.3431 147.002 40.9994L140.161 49.117L135.359 44.1487L135.238 44.0233L135.097 44.1264L132.209 46.2411L132.675 42.8762L132.771 42.8762L132.79 42.6978L133.026 40.5236C133.189 40.7459 133.356 40.9751 133.523 41.205C134.289 42.2556 135.066 43.3228 135.5 43.8315L135.622 43.9741L135.772 43.862L135.652 43.7017Z" fill="white" stroke="black" stroke-width="0.4"/>
<path d="M140.171 49.4153L135.215 44.3366L131.814 46.8271C130.454 48.3409 120.979 59.2308 120.202 68.6068C119.376 78.7154 120.202 99.5185 117.481 109.383C117.238 110.311 116.995 111.19 116.752 112.069C118.355 112.801 120.639 113.631 123.068 113.827C126.664 114.071 137.013 113.485 141.92 113.143C139.394 104.695 136.576 92.8771 136.138 80.6687C135.555 64.4072 142.843 48.8781 147.216 41.1136L140.171 49.4153Z" fill="white"/>
<path d="M147.168 41.0647C142.795 48.8781 135.507 64.3583 136.09 80.6199C136.527 92.8283 139.345 104.646 141.872 113.094C142.989 116.757 144.009 119.784 144.835 121.933L147.751 121.542C147.751 121.542 147.751 121.542 147.799 121.494C149.111 120.419 150.326 119.296 151.443 118.026C161.306 106.795 161.841 89.0193 161.841 89.0193C153.63 54.8846 163.541 44.6784 163.541 44.6784C163.541 44.6784 155.33 41.1624 150.423 35.8395C150.374 35.8884 149.062 37.7929 147.168 41.0647Z" fill="#36336B"/>
<path d="M144.69 121.494C144.738 121.689 144.835 121.835 144.884 121.982L147.799 121.591C147.799 121.591 147.799 121.591 147.848 121.542C149.16 120.468 150.374 119.345 151.492 118.075C161.355 106.843 161.889 89.0681 161.889 89.0681C156.545 66.7511 158.877 54.6893 161.161 48.9757C161.161 48.9757 153.144 59.6703 155.379 99.958C155.33 99.958 155.865 113.876 144.69 121.494Z" fill="#27254D"/>
<path d="M163.493 44.7272C163.493 44.7272 153.581 54.9334 161.792 89.0681C161.792 89.0681 161.258 106.843 151.395 118.075C154.213 119.882 158.926 122.519 163.104 123.203C165.339 120.126 167.671 116.708 168.303 115.194L176.951 95.1234C176.951 95.1234 172.044 61.4283 172.044 48.1456C172.093 48.1456 169.032 45.8992 163.493 44.7272Z" fill="#36336B"/>
<path d="M155.816 120.615C158.1 121.787 160.723 122.812 163.153 123.252C165.388 120.175 167.72 116.757 168.352 115.243L177 95.1722C177 95.1722 172.093 61.4771 172.093 48.1944C172.093 48.1944 170.587 47.1201 167.817 46.0457C169.177 54.0056 170.392 64.749 168.06 68.0696C164.222 73.539 177.972 86.3822 172.287 93.4631C168.254 98.4929 158.78 111.092 155.816 120.615Z" fill="#27254D"/>
<path d="M163.104 123.252C158.926 122.519 154.213 119.882 151.395 118.124C150.326 119.394 149.111 120.517 147.751 121.591C147.751 121.591 152.269 126.914 156.788 129.014L158.391 129.551C158.44 129.551 160.723 126.572 163.104 123.252Z" fill="white"/>
<path d="M118.064 63.284C118.064 63.284 115.829 81.1571 114.517 85.9916C114.517 85.9916 108.395 104.793 109.756 128.135L111.893 127.988C111.893 127.988 114.274 120.81 116.752 112.069C116.995 111.19 117.238 110.311 117.481 109.383C120.202 99.5185 119.327 78.7154 120.202 68.6069C120.979 59.182 130.454 48.3409 131.814 46.8271C131.911 46.7294 131.96 46.6318 131.96 46.6318L132.494 42.7739C131.523 43.4088 123.117 48.9758 121.854 50.1966C121.028 51.0268 119.91 57.5705 118.064 63.284Z" fill="#36336B"/>
<path d="M114.517 85.9916C115.829 81.1571 118.064 63.284 118.064 63.284C117.044 66.507 115.732 69.437 114.128 71.0485C114.128 71.0485 103.245 71.2927 95.6168 65.8722C95.6168 65.8722 93.4789 68.4115 93.1388 73.8809L94.2563 79.1549C94.2563 79.2037 107.229 86.8706 114.517 85.9916Z" fill="#36336B"/>
<path d="M114.517 85.9916C115.829 81.1571 118.064 63.284 118.064 63.284C117.044 66.507 115.732 69.437 114.128 71.0485C114.128 71.0485 114.711 78.1782 113.059 82.0361C113.059 82.0361 100.281 79.8874 93.5275 75.5412L94.2563 79.1549C94.2563 79.2037 107.229 86.8706 114.517 85.9916Z" fill="#27254D"/>
<path d="M94.9195 66.0358C94.8989 66.0672 94.8776 66.1002 94.8555 66.1349C94.6369 66.4787 94.3467 66.9897 94.0473 67.6739C93.5284 68.8596 92.9832 70.5627 92.7334 72.8133L88.599 68.6579C88.7565 66.5529 89.5762 65.0605 90.3634 64.0867C90.7718 63.5815 91.172 63.2155 91.4673 62.9774C91.5161 62.9381 91.5619 62.9024 91.6044 62.8701L91.7897 63.075C92.7244 64.1922 93.7792 65.1912 94.9195 66.0358ZM91.9339 62.6411C91.9342 62.6409 91.9342 62.6409 91.934 62.641L91.9339 62.6411Z" fill="white" stroke="black"/>
<path d="M89.6343 63.4091C88.7752 64.4719 87.8935 66.0698 87.6729 68.2765C87.5601 68.2882 87.4445 68.3079 87.3297 68.3315C87.0036 68.3987 86.6276 68.5111 86.2587 68.6226L86.2408 68.6281C85.4753 68.8595 84.746 69.08 84.2113 69.0834C84.1584 69.0794 84.054 69.0533 83.8899 68.9722C83.7249 68.8907 83.5322 68.77 83.3186 68.6158C82.8917 68.3075 82.4198 67.893 81.9744 67.4693C81.5663 67.0812 81.1887 66.6933 80.8993 66.3869L81.58 66.2058L83.3611 67.0114L83.8178 67.2179L84.0221 66.7634C84.0218 66.7639 84.0217 66.764 84.0218 66.7639L84.0221 66.7633L84.0244 66.7586C84.0274 66.7524 84.0332 66.7409 84.0419 66.7246C84.0593 66.692 84.0886 66.6401 84.1315 66.5728C84.2173 66.4382 84.3574 66.2423 84.5664 66.0158C84.9831 65.5639 85.6779 64.985 86.7727 64.5265L87.0948 64.3916L87.0791 64.0427L87.0791 64.0427V64.0427L87.0791 64.0425L87.079 64.0415L87.0788 64.0373L87.0781 64.0198L87.0753 63.9511C87.073 63.8911 87.0698 63.8035 87.0664 63.6943C87.0597 63.4758 87.0522 63.1713 87.0492 62.8279C87.0431 62.1344 87.0558 61.3061 87.1249 60.704L87.1912 60.1264L86.6108 60.1472L86.6107 60.1473L86.6105 60.1473L86.6105 60.1473L86.6102 60.1473L86.6069 60.1474L86.5888 60.1477C86.572 60.148 86.546 60.1483 86.5119 60.1482C86.4436 60.1479 86.3434 60.146 86.2205 60.1393C85.9731 60.1258 85.6411 60.0931 85.2948 60.0179C85.2036 59.9981 85.1143 59.976 85.0274 59.9515C85.7594 59.963 86.4836 59.9004 87.1067 59.818C87.6997 59.7396 88.2172 59.6409 88.5868 59.5617C88.6951 59.5385 88.791 59.517 88.8725 59.498L90.9989 62.0626C90.9636 62.09 90.9267 62.1191 90.8884 62.1499C90.5476 62.4247 90.0945 62.8399 89.6343 63.4091Z" fill="white" stroke="black"/>
<path d="M83.6805 60.4505C84.1176 60.725 84.6149 60.8825 85.0304 60.976C85.4076 61.0609 85.7638 61.1036 86.0376 61.1251C86.0103 61.5618 86.0005 62.0307 85.9994 62.4606L85.5202 62.356L83.0056 61.8065L83.308 61.4688L83.3159 61.46L83.3233 61.4509L82.9355 61.1353C83.3233 61.4509 83.3235 61.4507 83.3236 61.4505L83.3239 61.4502L83.3246 61.4494L83.326 61.4476L83.3293 61.4434L83.3378 61.4325C83.3442 61.4241 83.3522 61.4134 83.3613 61.4005C83.3796 61.3748 83.4029 61.34 83.4286 61.2969C83.4797 61.2115 83.5422 61.0898 83.5923 60.9386C83.6383 60.7998 83.6742 60.6345 83.6805 60.4505ZM85.8234 63.1308L86.0008 62.8767C86.004 63.2172 86.0115 63.5166 86.0183 63.7323C86.0185 63.7375 86.0187 63.7428 86.0188 63.748C85.6273 63.9342 85.2821 64.1349 84.979 64.3394L85.8234 63.1308ZM83.1098 65.8222L83.4595 65.7381C83.4096 65.8026 83.3649 65.8634 83.3253 65.9196L83.1098 65.8222Z" fill="white" stroke="black"/>
<path d="M83.8101 65.1396L85.4135 62.8445L82.061 62.112L80.5062 62.6491L79.9717 66.1163L81.5751 65.6768L83.8101 65.1396Z" fill="white"/>
<path d="M79.578 60.4597L82.7296 60.4196C82.7268 60.4953 82.7117 60.5638 82.6918 60.6239C82.6843 60.6463 82.6762 60.6673 82.668 60.6867L80.0733 61.1835C79.9463 61.0662 79.8227 60.9459 79.7191 60.838C79.6425 60.7581 79.5821 60.6904 79.541 60.6392C79.5325 60.6286 79.5257 60.6198 79.5203 60.6126C79.5277 60.5801 79.5434 60.5342 79.5693 60.4782C79.5722 60.472 79.5751 60.4658 79.578 60.4597ZM79.5158 60.6419C79.5157 60.642 79.5157 60.641 79.5159 60.6389C79.5159 60.6409 79.5158 60.6419 79.5158 60.6419Z" fill="white" stroke="black"/>
<path d="M116.752 112.069C114.274 120.81 111.893 127.988 111.893 127.988C111.893 127.988 105.14 153.87 104.945 176.871C104.945 176.871 117.675 196.307 115.635 227.462C115.635 227.462 121.125 233.518 130.211 230.685C130.211 230.685 131.328 187.858 123.506 176.968C123.506 176.968 125.352 164.369 130.114 160.121C130.114 160.121 131.474 175.455 136.381 183.121C136.381 183.121 144.204 212.275 137.402 231.662C137.402 231.662 137.402 232.102 137.304 232.785C140.803 235.422 149.062 235.666 149.062 235.666C149.062 235.666 163.979 200.311 150.229 173.55C150.229 173.55 148.868 148.84 156.01 132.676L153.484 132.969C151.152 135.069 149.014 135.997 149.014 135.997L143.135 126.426C143.135 126.426 143.086 126.426 139.394 126.963C135.701 127.5 136.478 125.303 136.478 125.303C138.373 125.107 143.572 122.177 143.572 122.177L144.884 121.982C144.107 119.833 143.038 116.806 141.92 113.143C137.061 113.485 126.664 114.071 123.068 113.827C120.59 113.631 118.307 112.801 116.752 112.069Z" fill="#36336B"/>
<path d="M145.807 235.324C147.653 235.569 149.014 235.569 149.014 235.569C149.014 235.569 163.93 200.213 150.18 173.452C150.18 173.452 148.82 148.743 155.962 132.579L153.435 132.872C151.589 134.532 149.888 135.46 149.257 135.802C146.779 143.713 143.524 157.972 145.71 173.257C145.71 173.257 155.427 211.494 145.71 234.592C145.71 234.641 145.759 234.885 145.807 235.324Z" fill="#27254D"/>
<path d="M125.546 231.369C126.955 231.369 128.51 231.125 130.211 230.588C130.211 230.588 131.328 187.761 123.506 176.871C123.506 176.871 125.352 164.272 130.114 160.023C130.114 160.023 128.947 140.734 129.142 134.581C129.142 134.581 116.898 154.7 118.987 175.113C118.939 175.162 125.886 208.417 125.546 231.369Z" fill="#27254D"/>
<path d="M149.014 235.569C149.014 235.569 140.754 235.325 137.256 232.688C136.964 234.446 135.75 237.815 131.377 239.573C130.405 241.722 127.247 244.017 127.247 244.017C127.247 244.017 121.805 245.433 121.465 247.484C121.174 249.584 121.125 249.828 121.125 249.828C121.125 249.828 139.248 253.539 144.981 247.679L145.176 248.217C145.176 248.217 149.403 248.412 150.471 246.752C150.471 246.752 151.832 239.231 149.014 235.569Z" fill="#36336B"/>
<path d="M149.014 235.569C149.014 235.569 147.653 235.52 145.807 235.325C144.641 235.178 143.329 234.983 142.017 234.641C140.22 234.201 138.47 233.567 137.304 232.688C137.207 233.225 137.013 233.908 136.721 234.641C136.624 234.836 136.527 235.08 136.43 235.276C136.527 235.373 136.624 235.422 136.721 235.52C138.47 236.838 141.386 238.206 146.293 238.596C146.585 241.233 146.876 244.847 146.633 248.217C147.945 248.119 149.84 247.826 150.471 246.8C150.471 246.752 151.832 239.231 149.014 235.569Z" fill="#27254D"/>
<path d="M131.377 239.573C131.523 238.108 130.211 230.636 130.211 230.636C121.125 233.469 115.635 227.413 115.635 227.413C115.635 227.413 112.768 237.815 104.362 238.645C95.9569 239.475 95.0337 238.987 94.3049 241.868C94.3049 241.868 107.035 247.679 118.015 242.698C118.015 242.698 121.611 242.552 121.805 244.017L127.247 243.968C127.198 244.017 130.405 241.722 131.377 239.573Z" fill="#36336B"/>
<mask id="path-55-inside-1" fill="white">
<path fill-rule="evenodd" clip-rule="evenodd" d="M128.629 16.3061C128.622 16.3061 128.615 16.3061 128.607 16.3061L128.564 15.1342L128.559 15.0364C128.559 15.0364 128.559 15.0364 128.561 15.0362L128.559 14.9876C128.559 14.9876 134.535 14.1574 138.519 13.0831C139.928 12.6924 141.046 12.3017 141.629 11.9111C141.629 11.9111 142.795 11.9111 144.009 12.2041C145.176 12.4482 146.342 12.9854 146.536 14.0109C146.536 14.0109 146.527 14.0218 146.511 14.0434C146.521 14.0807 146.529 14.1187 146.536 14.1574C146.536 14.1574 145.571 15.3426 145.548 17.3753C145.563 18.6715 145.963 20.2959 147.216 22.1661C147.135 22.0933 147.057 22.0207 146.981 21.9483C147.056 22.0687 147.134 22.1901 147.216 22.3126C147.216 22.3126 147.751 20.0663 149.694 19.9198C151.027 20.1877 151.019 21.6391 151.008 23.7891V23.7894V23.7898C151.007 23.9914 151.006 24.1991 151.006 24.4125C151.006 26.903 148.188 28.5633 148.188 28.5633L148.188 32.1074C147.168 34.305 135.652 42.8997 135.652 42.8997C135.021 42.216 133.806 40.5068 132.883 39.1883L133.178 36.704C132.839 36.4314 131.974 35.7051 131.474 35.0094C130.842 34.1304 129.385 28.3192 129.385 28.3192L128.899 21.1895L128.629 16.3061ZM128.85 21.1405L129.336 28.2702C128.413 28.1237 127.49 22.5567 127.49 21.9707C127.49 21.3359 128.85 21.1405 128.85 21.1405Z"/>
</mask>
<path fill-rule="evenodd" clip-rule="evenodd" d="M128.629 16.3061C128.622 16.3061 128.615 16.3061 128.607 16.3061L128.564 15.1342L128.559 15.0364C128.559 15.0364 128.559 15.0364 128.561 15.0362L128.559 14.9876C128.559 14.9876 134.535 14.1574 138.519 13.0831C139.928 12.6924 141.046 12.3017 141.629 11.9111C141.629 11.9111 142.795 11.9111 144.009 12.2041C145.176 12.4482 146.342 12.9854 146.536 14.0109C146.536 14.0109 146.527 14.0218 146.511 14.0434C146.521 14.0807 146.529 14.1187 146.536 14.1574C146.536 14.1574 145.571 15.3426 145.548 17.3753C145.563 18.6715 145.963 20.2959 147.216 22.1661C147.135 22.0933 147.057 22.0207 146.981 21.9483C147.056 22.0687 147.134 22.1901 147.216 22.3126C147.216 22.3126 147.751 20.0663 149.694 19.9198C151.027 20.1877 151.019 21.6391 151.008 23.7891V23.7894V23.7898C151.007 23.9914 151.006 24.1991 151.006 24.4125C151.006 26.903 148.188 28.5633 148.188 28.5633L148.188 32.1074C147.168 34.305 135.652 42.8997 135.652 42.8997C135.021 42.216 133.806 40.5068 132.883 39.1883L133.178 36.704C132.839 36.4314 131.974 35.7051 131.474 35.0094C130.842 34.1304 129.385 28.3192 129.385 28.3192L128.899 21.1895L128.629 16.3061ZM128.85 21.1405L129.336 28.2702C128.413 28.1237 127.49 22.5567 127.49 21.9707C127.49 21.3359 128.85 21.1405 128.85 21.1405Z" fill="white"/>
<path d="M128.607 16.3061L127.608 16.3429L127.644 17.3061H128.607V16.3061ZM128.629 16.3061L129.627 16.2509L129.575 15.3056L128.628 15.3061L128.629 16.3061ZM128.564 15.1342L129.563 15.0973L129.563 15.0882L129.563 15.079L128.564 15.1342ZM128.559 15.0364L128.421 14.046L127.509 14.1728L127.56 15.0916L128.559 15.0364ZM128.561 15.0362L128.699 16.0266L129.593 15.9019L129.56 14.9994L128.561 15.0362ZM128.559 14.9876L128.421 13.9971L127.526 14.1214L127.559 15.0244L128.559 14.9876ZM138.519 13.0831L138.779 14.0486L138.786 14.0467L138.519 13.0831ZM141.629 11.9111V10.9111H141.325L141.072 11.0803L141.629 11.9111ZM144.009 12.2041L143.775 13.1762L143.79 13.1797L143.804 13.1828L144.009 12.2041ZM146.536 14.0109L147.311 14.6423L147.605 14.2816L147.518 13.8247L146.536 14.0109ZM146.511 14.0434L145.71 13.4449L145.423 13.829L145.543 14.2933L146.511 14.0434ZM146.536 14.1574L147.311 14.7888L147.602 14.432L147.52 13.9794L146.536 14.1574ZM145.548 17.3753L144.548 17.3641L144.548 17.3753L144.548 17.3865L145.548 17.3753ZM147.216 22.1661L146.547 22.9093L148.047 21.6096L147.216 22.1661ZM146.981 21.9483L147.67 21.224L146.132 22.4765L146.981 21.9483ZM147.216 22.3126L146.385 22.8692L147.659 24.7709L148.189 22.5441L147.216 22.3126ZM149.694 19.9198L149.891 18.9394L149.756 18.9123L149.619 18.9226L149.694 19.9198ZM151.008 23.7891L150.008 23.7839V23.7891H151.008ZM151.008 23.7898L152.008 23.795V23.7898H151.008ZM148.188 28.5633L147.68 27.7018L147.188 27.9919L147.188 28.5633L148.188 28.5633ZM148.188 32.1074L149.095 32.5286L149.188 32.3283V32.1075L148.188 32.1074ZM135.652 42.8997L134.918 43.5783L135.529 44.2396L136.251 43.701L135.652 42.8997ZM132.883 39.1883L131.89 39.0703L131.845 39.4493L132.064 39.7619L132.883 39.1883ZM133.178 36.704L134.171 36.822L134.236 36.2719L133.805 35.9247L133.178 36.704ZM131.474 35.0094L130.662 35.5929H130.662L131.474 35.0094ZM129.385 28.3192L128.387 28.3872L128.393 28.476L128.415 28.5625L129.385 28.3192ZM128.899 21.1895L127.9 21.2447L127.901 21.2575L128.899 21.1895ZM129.336 28.2702L129.179 29.2579L130.419 29.4546L130.334 28.2022L129.336 28.2702ZM128.85 21.1405L129.848 21.0725L129.775 19.9975L128.708 20.1507L128.85 21.1405ZM128.607 17.3061C128.615 17.3061 128.622 17.3061 128.629 17.3061L128.628 15.3061C128.621 15.3061 128.614 15.3061 128.607 15.3061V17.3061ZM127.565 15.171L127.608 16.3429L129.607 16.2693L129.563 15.0973L127.565 15.171ZM127.56 15.0916L127.566 15.1894L129.563 15.079L129.557 14.9813L127.56 15.0916ZM128.422 14.0458C128.422 14.0459 128.421 14.0459 128.421 14.0459C128.421 14.046 128.421 14.046 128.421 14.046C128.421 14.046 128.421 14.046 128.421 14.046C128.421 14.046 128.421 14.046 128.421 14.046C128.421 14.046 128.421 14.046 128.421 14.046C128.421 14.046 128.421 14.046 128.421 14.046C128.421 14.046 128.421 14.046 128.421 14.046C128.421 14.046 128.421 14.046 128.421 14.046C128.421 14.046 128.421 14.046 128.421 14.046C128.421 14.046 128.421 14.046 128.559 15.0364C128.697 16.0269 128.697 16.0269 128.697 16.0269C128.697 16.0269 128.697 16.0269 128.697 16.0269C128.697 16.0269 128.697 16.0269 128.697 16.0269C128.697 16.0269 128.697 16.0269 128.697 16.0269C128.697 16.0269 128.697 16.0269 128.697 16.0269C128.697 16.0269 128.697 16.0269 128.697 16.0269C128.697 16.0269 128.697 16.0269 128.697 16.0269C128.697 16.0269 128.697 16.0269 128.697 16.0269C128.697 16.0269 128.697 16.0269 128.697 16.0268C128.698 16.0268 128.698 16.0267 128.699 16.0266L128.422 14.0458ZM127.559 15.0244L127.561 15.073L129.56 14.9994L129.558 14.9508L127.559 15.0244ZM138.259 12.1176C136.313 12.6422 133.86 13.1121 131.876 13.4526C130.887 13.6222 130.022 13.7586 129.405 13.8524C129.096 13.8994 128.849 13.9356 128.68 13.9601C128.595 13.9724 128.53 13.9817 128.486 13.9879C128.465 13.991 128.448 13.9933 128.437 13.9949C128.432 13.9956 128.427 13.9962 128.425 13.9966C128.424 13.9968 128.423 13.9969 128.422 13.997C128.422 13.997 128.421 13.9971 128.421 13.9971C128.421 13.9971 128.421 13.9971 128.421 13.9971C128.421 13.9971 128.421 13.9971 128.559 14.9876C128.696 15.9781 128.696 15.9781 128.696 15.9781C128.697 15.978 128.697 15.978 128.697 15.978C128.697 15.978 128.697 15.9779 128.698 15.9779C128.699 15.9778 128.7 15.9776 128.701 15.9774C128.704 15.9769 128.709 15.9763 128.715 15.9755C128.727 15.9738 128.744 15.9713 128.767 15.9681C128.813 15.9616 128.88 15.952 128.967 15.9395C129.14 15.9144 129.391 15.8774 129.705 15.8297C130.332 15.7344 131.21 15.596 132.214 15.4238C134.214 15.0807 136.741 14.5983 138.779 14.0486L138.259 12.1176ZM141.072 11.0803C140.643 11.3678 139.681 11.7233 138.252 12.1194L138.786 14.0467C140.176 13.6615 141.448 13.2357 142.185 12.7418L141.072 11.0803ZM144.244 11.232C143.571 11.0695 142.921 10.9903 142.446 10.9511C142.207 10.9313 142.007 10.9213 141.865 10.9163C141.795 10.9138 141.738 10.9125 141.698 10.9118C141.678 10.9114 141.662 10.9113 141.65 10.9112C141.644 10.9111 141.64 10.9111 141.636 10.9111C141.634 10.9111 141.633 10.9111 141.631 10.9111C141.631 10.9111 141.63 10.9111 141.63 10.9111C141.63 10.9111 141.629 10.9111 141.629 10.9111C141.629 10.9111 141.629 10.9111 141.629 10.9111C141.629 10.9111 141.629 10.9111 141.629 11.9111C141.629 12.9111 141.629 12.9111 141.628 12.9111C141.628 12.9111 141.628 12.9111 141.628 12.9111C141.628 12.9111 141.628 12.9111 141.628 12.9111C141.628 12.9111 141.628 12.9111 141.628 12.9111C141.627 12.9111 141.628 12.9111 141.628 12.9111C141.629 12.9111 141.631 12.9111 141.634 12.9111C141.64 12.9112 141.65 12.9113 141.664 12.9115C141.693 12.912 141.737 12.913 141.794 12.915C141.909 12.9191 142.077 12.9275 142.281 12.9443C142.693 12.9783 143.234 13.0456 143.775 13.1762L144.244 11.232ZM147.518 13.8247C147.353 12.9526 146.78 12.3556 146.173 11.9702C145.573 11.5891 144.862 11.3608 144.214 11.2253L143.804 13.1828C144.323 13.2915 144.778 13.4539 145.101 13.6588C145.417 13.8594 145.524 14.0437 145.553 14.1971L147.518 13.8247ZM147.312 14.6418C147.316 14.6369 147.318 14.6344 147.318 14.6345C147.318 14.6345 147.317 14.6352 147.316 14.6365C147.316 14.6371 147.315 14.6379 147.314 14.6389C147.314 14.6394 147.313 14.6399 147.313 14.6405C147.313 14.6408 147.312 14.641 147.312 14.6413C147.312 14.6415 147.312 14.6417 147.312 14.6418C147.312 14.6419 147.312 14.642 147.312 14.642C147.312 14.6421 147.312 14.6421 147.312 14.6422C147.312 14.6422 147.311 14.6422 147.311 14.6422C147.311 14.6423 147.311 14.6423 146.536 14.0109C145.76 13.3795 145.76 13.3796 145.76 13.3796C145.76 13.3796 145.76 13.3796 145.76 13.3797C145.76 13.3797 145.76 13.3797 145.76 13.3798C145.76 13.3799 145.76 13.38 145.76 13.38C145.76 13.3802 145.76 13.3804 145.76 13.3805C145.759 13.3809 145.759 13.3812 145.759 13.3816C145.758 13.3823 145.758 13.3831 145.757 13.3839C145.756 13.3856 145.754 13.3874 145.752 13.3894C145.749 13.3934 145.746 13.3982 145.741 13.4036C145.733 13.4145 145.722 13.4283 145.71 13.4449L147.312 14.6418ZM147.52 13.9794C147.509 13.9165 147.495 13.8546 147.479 13.7935L145.543 14.2933C145.546 14.3069 145.549 14.3209 145.552 14.3355L147.52 13.9794ZM146.548 17.3865C146.558 16.5287 146.766 15.8582 146.965 15.4095C147.064 15.1848 147.161 15.0169 147.229 14.9108C147.262 14.8579 147.288 14.8207 147.304 14.8001C147.311 14.7897 147.316 14.7836 147.317 14.7817C147.318 14.7807 147.318 14.7808 147.317 14.782C147.316 14.7826 147.316 14.7834 147.315 14.7846C147.314 14.7851 147.314 14.7858 147.313 14.7865C147.313 14.7868 147.313 14.7872 147.312 14.7876C147.312 14.7878 147.312 14.7881 147.312 14.7881C147.312 14.7885 147.311 14.7888 146.536 14.1574C145.76 13.5261 145.76 13.5264 145.76 13.5268C145.76 13.5269 145.76 13.5272 145.759 13.5274C145.759 13.5279 145.759 13.5284 145.758 13.5289C145.757 13.5299 145.757 13.5309 145.756 13.5321C145.754 13.5343 145.752 13.5369 145.749 13.5398C145.745 13.5456 145.739 13.5526 145.733 13.5608C145.72 13.5773 145.704 13.5986 145.685 13.6246C145.648 13.6767 145.598 13.748 145.541 13.838C145.427 14.0177 145.281 14.273 145.137 14.5988C144.847 15.2508 144.562 16.1892 144.548 17.3641L146.548 17.3865ZM148.047 21.6096C146.894 19.8877 146.56 18.4507 146.548 17.3642L144.548 17.3865C144.565 18.8923 145.033 20.7042 146.385 22.7227L148.047 21.6096ZM146.291 22.6726C146.374 22.7515 146.459 22.8304 146.547 22.9093L147.885 21.423C147.811 21.3562 147.74 21.2899 147.67 21.224L146.291 22.6726ZM148.047 21.7561C147.971 21.6428 147.899 21.5308 147.83 21.4201L146.132 22.4765C146.213 22.6066 146.297 22.7375 146.385 22.8692L148.047 21.7561ZM149.619 18.9226C148.22 19.0281 147.359 19.9008 146.888 20.6266C146.65 20.992 146.493 21.3457 146.395 21.6058C146.345 21.7372 146.309 21.8483 146.285 21.93C146.272 21.9709 146.263 22.0046 146.256 22.0302C146.253 22.0429 146.25 22.0536 146.248 22.0622C146.247 22.0665 146.246 22.0702 146.245 22.0734C146.245 22.0749 146.244 22.0764 146.244 22.0777C146.244 22.0783 146.244 22.079 146.244 22.0795C146.244 22.0798 146.244 22.0802 146.244 22.0804C146.243 22.0808 146.243 22.0812 147.216 22.3126C148.189 22.5441 148.189 22.5445 148.189 22.5448C148.189 22.545 148.189 22.5453 148.189 22.5455C148.189 22.546 148.188 22.5464 148.188 22.5468C148.188 22.5475 148.188 22.5482 148.188 22.5487C148.188 22.5497 148.188 22.5502 148.188 22.5502C148.188 22.5502 148.188 22.5483 148.189 22.5446C148.191 22.5371 148.195 22.5225 148.201 22.5017C148.214 22.4599 148.235 22.3944 148.265 22.313C148.328 22.1473 148.426 21.9303 148.565 21.7158C148.847 21.2817 149.225 20.958 149.769 20.917L149.619 18.9226ZM152.008 23.7942C152.013 22.7703 152.026 21.7235 151.826 20.9102C151.721 20.4815 151.54 20.0371 151.207 19.6662C150.859 19.2803 150.409 19.0435 149.891 18.9394L149.497 20.9002C149.645 20.93 149.694 20.9751 149.72 21.0038C149.759 21.0477 149.826 21.1507 149.884 21.3871C150.011 21.9039 150.014 22.6578 150.008 23.7839L152.008 23.7942ZM152.008 23.7894V23.7891H150.008V23.7894H152.008ZM152.008 23.7898V23.7894H150.008V23.7898H152.008ZM152.006 24.4125C152.006 24.2021 152.007 23.9969 152.008 23.795L150.008 23.7847C150.007 23.9858 150.006 24.1961 150.006 24.4125H152.006ZM148.188 28.5633C148.696 29.4249 148.696 29.4247 148.696 29.4246C148.696 29.4245 148.697 29.4243 148.697 29.4242C148.697 29.4239 148.698 29.4236 148.698 29.4233C148.699 29.4227 148.701 29.4219 148.702 29.4211C148.705 29.4193 148.708 29.4172 148.713 29.4147C148.721 29.4096 148.732 29.4029 148.746 29.3945C148.773 29.3778 148.81 29.3544 148.855 29.3247C148.946 29.2653 149.072 29.18 149.221 29.0702C149.518 28.8519 149.915 28.5306 150.315 28.1181C151.093 27.3161 152.006 26.0395 152.006 24.4125H150.006C150.006 25.276 149.51 26.0748 148.879 26.7256C148.575 27.0395 148.267 27.289 148.035 27.4598C147.92 27.5446 147.826 27.6084 147.763 27.6496C147.731 27.6701 147.708 27.6849 147.693 27.6937C147.686 27.6981 147.682 27.7009 147.679 27.7023C147.678 27.703 147.678 27.7033 147.678 27.7032C147.678 27.7031 147.678 27.703 147.679 27.7028C147.679 27.7026 147.679 27.7025 147.679 27.7023C147.679 27.7023 147.68 27.7021 147.68 27.7021C147.68 27.7019 147.68 27.7018 148.188 28.5633ZM149.188 32.1075L149.188 28.5633L147.188 28.5633L147.188 32.1074L149.188 32.1075ZM135.652 42.8997C136.251 43.701 136.251 43.701 136.251 43.7009C136.251 43.7008 136.251 43.7007 136.251 43.7006C136.252 43.7003 136.252 43.6998 136.253 43.6993C136.254 43.6982 136.257 43.6966 136.259 43.6944C136.265 43.6902 136.274 43.6839 136.285 43.6756C136.307 43.659 136.34 43.6344 136.382 43.6024C136.468 43.5384 136.593 43.4443 136.752 43.3241C137.07 43.0835 137.526 42.7377 138.076 42.3159C139.176 41.4728 140.654 40.3246 142.165 39.1062C143.674 37.8897 145.227 36.5947 146.472 35.4599C147.094 34.8931 147.651 34.356 148.09 33.8817C148.506 33.4328 148.895 32.9586 149.095 32.5286L147.281 31.6863C147.225 31.8056 147.032 32.0808 146.623 32.5225C146.237 32.9388 145.726 33.4337 145.125 33.9818C143.924 35.0765 142.407 36.3422 140.91 37.5491C139.415 38.754 137.951 39.8918 136.859 40.7289C136.314 41.1472 135.862 41.49 135.547 41.7281C135.389 41.8471 135.266 41.9399 135.182 42.0028C135.14 42.0343 135.108 42.0583 135.086 42.0743C135.076 42.0824 135.068 42.0884 135.062 42.0924C135.059 42.0944 135.057 42.0959 135.056 42.0969C135.055 42.0974 135.055 42.0977 135.055 42.098C135.055 42.0981 135.054 42.0982 135.054 42.0982C135.054 42.0983 135.054 42.0983 135.652 42.8997ZM132.064 39.7619C132.967 41.0525 134.229 42.8322 134.918 43.5783L136.387 42.2211C135.813 41.5998 134.645 39.9611 133.702 38.6148L132.064 39.7619ZM132.185 36.586L131.89 39.0703L133.876 39.3063L134.171 36.822L132.185 36.586ZM130.662 35.5929C131.25 36.411 132.214 37.2119 132.551 37.4833L133.805 35.9247C133.464 35.6508 132.698 34.9991 132.286 34.4258L130.662 35.5929ZM129.385 28.3192C128.415 28.5625 128.415 28.5625 128.415 28.5626C128.415 28.5626 128.415 28.5627 128.415 28.5629C128.415 28.5631 128.415 28.5634 128.415 28.5638C128.415 28.5646 128.416 28.5657 128.416 28.5672C128.417 28.5702 128.418 28.5745 128.419 28.5802C128.422 28.5916 128.426 28.6083 128.432 28.6301C128.443 28.6736 128.459 28.7373 128.48 28.8184C128.521 28.9807 128.581 29.2132 128.655 29.4946C128.803 30.0572 129.006 30.8178 129.23 31.6076C129.454 32.3951 129.7 33.2218 129.934 33.9128C130.05 34.2577 130.166 34.5797 130.278 34.851C130.381 35.1005 130.51 35.3813 130.662 35.5929L132.286 34.4258C132.29 34.432 132.275 34.4104 132.241 34.3426C132.21 34.2795 132.171 34.1952 132.127 34.088C132.039 33.8733 131.938 33.5971 131.829 33.2736C131.611 32.6277 131.374 31.8368 131.155 31.0617C130.935 30.2888 130.735 29.5417 130.59 28.9872C130.517 28.7101 130.458 28.4817 130.417 28.3227C130.397 28.2433 130.381 28.1812 130.371 28.1392C130.365 28.1182 130.361 28.1022 130.359 28.0915C130.357 28.0862 130.356 28.0822 130.356 28.0796C130.355 28.0783 130.355 28.0773 130.355 28.0767C130.355 28.0764 130.355 28.0761 130.355 28.076C130.355 28.0759 130.355 28.0759 130.355 28.0759C130.355 28.0759 130.355 28.0759 129.385 28.3192ZM127.901 21.2575L128.387 28.3872L130.382 28.2512L129.897 21.1215L127.901 21.2575ZM127.63 16.3613L127.9 21.2447L129.897 21.1343L129.627 16.2509L127.63 16.3613ZM130.334 28.2022L129.848 21.0725L127.853 21.2085L128.338 28.3382L130.334 28.2022ZM126.49 21.9707C126.49 22.2169 126.565 22.7635 126.662 23.3458C126.766 23.9697 126.914 24.7465 127.093 25.5125C127.27 26.2705 127.485 27.0531 127.727 27.6716C127.847 27.9765 127.99 28.2867 128.164 28.543C128.301 28.7446 128.624 29.1697 129.179 29.2579L129.493 27.2826C129.818 27.3341 129.91 27.5532 129.819 27.42C129.766 27.3416 129.686 27.1882 129.589 26.9414C129.399 26.4566 129.21 25.7833 129.041 25.058C128.873 24.3407 128.733 23.6068 128.635 23.0174C128.586 22.7229 128.548 22.469 128.523 22.275C128.495 22.0582 128.49 21.9695 128.49 21.9707H126.49ZM128.85 21.1405C128.708 20.1507 128.708 20.1507 128.708 20.1507C128.708 20.1508 128.707 20.1508 128.707 20.1508C128.707 20.1509 128.707 20.1509 128.706 20.151C128.705 20.1511 128.705 20.1512 128.704 20.1513C128.702 20.1516 128.699 20.1519 128.697 20.1523C128.692 20.1531 128.685 20.1541 128.678 20.1553C128.663 20.1577 128.642 20.1611 128.618 20.1654C128.568 20.1741 128.501 20.187 128.422 20.2046C128.266 20.2391 128.047 20.2954 127.817 20.3818C127.599 20.4639 127.31 20.5962 127.058 20.8088C126.799 21.0268 126.49 21.4129 126.49 21.9707H128.49C128.49 22.2111 128.351 22.3347 128.347 22.3375C128.344 22.3404 128.355 22.3303 128.39 22.3117C128.424 22.2938 128.468 22.2739 128.523 22.2533C128.634 22.2115 128.754 22.1793 128.854 22.1573C128.902 22.1467 128.941 22.1393 128.966 22.1349C128.979 22.1326 128.987 22.1312 128.992 22.1304C128.994 22.1301 128.996 22.1299 128.996 22.1299C128.996 22.1299 128.996 22.1299 128.995 22.13C128.995 22.13 128.994 22.1301 128.994 22.1301C128.994 22.1302 128.993 22.1302 128.993 22.1303C128.993 22.1303 128.993 22.1303 128.993 22.1303C128.993 22.1303 128.992 22.1304 128.85 21.1405Z" fill="black" mask="url(#path-55-inside-1)"/>
<path d="M143.961 47.2666C145.078 44.8738 146.196 42.7739 147.168 41.0648L143.961 44.8738L140.171 49.3665L138.519 47.6573L135.215 44.2878L131.814 46.7294L134.972 45.2644L138.519 48.4875L140.9 50.685L143.475 48.2921C143.669 47.9991 143.815 47.6573 143.961 47.2666Z" fill="#0AC41E"/>
<path d="M118.744 116.561C120.105 116.952 121.708 117.392 123.554 117.733C127.49 118.466 132.543 118.905 138.519 118.368C140.074 118.222 141.677 118.026 143.378 117.782V117.733C142.941 116.366 142.406 114.803 141.92 113.143C140.948 113.192 139.782 113.29 138.519 113.338C138.276 113.338 137.985 113.387 137.693 113.387C132.494 113.68 125.789 114.022 123.068 113.827C122.291 113.778 121.562 113.68 120.882 113.485C119.279 113.143 117.87 112.557 116.752 112.069C116.412 113.241 116.072 114.413 115.78 115.487C116.558 115.829 117.578 116.171 118.744 116.561Z" fill="#27254D"/>
<path d="M130.162 230.636C128.51 231.174 126.955 231.369 125.498 231.418C119.23 231.467 115.586 227.462 115.586 227.462C115.586 227.462 115.343 228.439 114.711 229.806C116.655 231.613 119.91 233.518 125.449 234.299C125.352 236.936 125.109 239.427 124.72 241.673C124.575 242.503 124.429 243.333 124.235 244.066H127.198C127.198 244.066 128.656 243.04 129.871 241.673C130.454 241.038 131.037 240.306 131.328 239.622C131.425 238.987 131.182 237.034 130.891 235.178C130.891 235.031 130.842 234.885 130.842 234.69C130.551 232.541 130.162 230.636 130.162 230.636Z" fill="#27254D"/>
<path d="M117.724 112.508C123.36 105.916 120.445 80.9129 120.931 69.9254C120.979 68.5092 121.125 67.3372 121.319 66.4582C122.583 60.7935 128.85 51.3198 132.057 46.6806L131.863 46.7783L131.814 46.8271C130.454 48.3409 120.979 59.2308 120.202 68.6069C120.202 68.6557 120.202 68.7045 120.202 68.8022C119.376 79.0084 120.202 99.5673 117.529 109.383C117.287 110.311 117.044 111.19 116.801 112.069C117.044 112.215 117.384 112.362 117.724 112.508Z" fill="#0AC41E"/>
<path d="M94.645 65.1397C93.6247 66.4582 92.2642 68.8022 91.584 72.3182L93.1388 73.9297C93.4789 68.4604 95.6168 65.921 95.6168 65.921C95.2766 65.628 94.9851 65.3838 94.645 65.1397Z" fill="#EEEDFF"/>
<path d="M151.454 118.799C151.46 118.792 151.467 118.785 151.473 118.778L151.478 118.773C151.479 118.771 151.481 118.769 151.483 118.767C151.797 118.961 152.147 119.171 152.494 119.38L152.497 119.382L152.497 119.382L152.499 119.384C155.176 120.98 158.829 122.861 162.26 123.6C161.886 124.132 161.501 124.647 161.126 125.149C161.125 125.149 161.125 125.149 161.125 125.15C161.011 125.116 160.907 125.09 160.81 125.065C158.811 124.442 157.153 123.679 155.834 122.874C153.595 121.496 152.253 119.993 151.454 118.799Z" fill="#F3F2FF" stroke="black"/>
</g>
<defs>
<linearGradient id="paint0_linear" x1="149.128" y1="261.217" x2="148.573" y2="236.646" gradientUnits="userSpaceOnUse">
<stop stop-color="white" stop-opacity="0"/>
<stop offset="1" stop-color="#82A9FF" stop-opacity="0.21"/>
</linearGradient>
<linearGradient id="paint1_linear" x1="137.888" y1="10.1019" x2="137.888" y2="0.292968" gradientUnits="userSpaceOnUse">
<stop stop-color="#36336B"/>
<stop offset="1" stop-color="#4F4387"/>
</linearGradient>
<clipPath id="clip0">
<rect width="96" height="54" fill="white" transform="translate(0 25.0001)"/>
</clipPath>
<clipPath id="clip1">
<rect width="121" height="129" fill="white" transform="translate(114 3.40924) rotate(-1.61455)"/>
</clipPath>
<clipPath id="clip2">
<rect width="98" height="247" fill="white" transform="translate(79 4.00006)"/>
</clipPath>
</defs>
</svg>
