<svg width="390" height="255" viewBox="0 0 390 255" fill="none" xmlns="http://www.w3.org/2000/svg">
<path d="M200.653 209.12C178.054 211.458 22.1557 224.21 2.73303 230.062C-16.6897 235.915 99.7797 233.632 114.689 232.807C129.599 231.982 141.226 235.232 124.182 239.519C107.139 243.807 191.161 240.897 237.541 237.467C283.922 234.036 239.463 230.187 266.735 227.365C294.041 224.512 389.193 217.197 366.336 213.666C343.478 210.136 399.147 205.435 386.057 202.821C373.001 200.205 241.072 204.908 200.653 209.12Z" fill="#00FF85" fill-opacity="0.08"/>
<g style="mix-blend-mode:luminosity">
<path d="M122.677 206.726C122.677 206.726 118.146 218.317 118.679 218.85C119.212 219.427 123.743 219.605 124.143 219.605C124.499 219.605 133.961 219.605 133.961 219.605C133.961 219.605 137.604 211.167 137.293 210.901C136.982 210.679 129.119 205.705 129.119 205.705L122.677 206.726Z" fill="#1631A4"/>
<path d="M132.317 210.856C132.317 210.856 125.165 211.833 118.99 207.925C118.99 207.925 128.319 154.145 128.808 151.17C129.297 148.195 128.319 110.446 128.319 110.446L142.58 106.094C142.58 106.094 145.645 164.093 145.467 163.56C145.334 163.072 132.317 210.856 132.317 210.856Z" fill="#1631A4"/>
<path d="M102.552 137.847C102.508 137.669 100.198 120.039 115.658 117.374C120.056 116.619 123.832 117.374 126.986 119.595C132.806 123.68 134.139 131.319 134.183 131.674L131.562 132.118C131.473 131.541 128.941 117.774 116.058 119.994C103.13 122.215 105.04 136.87 105.129 137.492L102.552 137.847Z" fill="#01008A"/>
<path d="M147.511 13.2785C147.511 13.2785 146.312 21.7607 143.824 26.8678C141.336 31.9749 140.092 31.4864 139.47 31.4864C138.848 31.4864 126.809 24.5141 126.809 24.5141L123.61 13.5894L132.939 7.2832L140.758 9.05958L147.511 13.2785Z" fill="white"/>
<path d="M138.048 30.8202C138.048 30.8202 135.25 30.9534 134.45 35.6164C133.695 40.2794 133.695 40.2794 133.695 40.2794L122.766 36.8155L128.053 23.6259L138.048 30.8202Z" fill="white"/>
<path d="M131.562 17.8082C131.562 17.8082 130.452 13.8558 127.875 15.1881C125.298 16.5204 128.364 22.3824 130.141 21.8939L127.52 24.9582L126.409 27.7116C126.409 27.7116 118.19 21.0057 118.945 13.7226C119.701 6.48382 124.054 6.61705 124.054 6.61705C124.054 6.61705 123.121 1.86523 129.163 0.222082C135.205 -1.42107 152.176 7.68288 156.441 5.32918C156.441 5.32918 151.287 20.0731 143.513 15.3213C135.738 10.5695 131.562 17.8082 131.562 17.8082Z" fill="#231F20"/>
<path d="M122.766 36.8155L123.121 32.8186L136.494 36.8155L137.249 42.8996L122.766 36.8155Z" fill="#E5E5E6"/>
<path d="M159.995 81.4025C159.995 81.4025 164.57 80.1146 166.17 79.2708C167.769 78.3826 169.057 77.3168 169.813 77.8053C170.568 78.2938 167.591 80.7808 167.369 81.0028C167.147 81.2249 173.633 81.2693 174.522 81.4025C175.41 81.5801 178.298 82.2907 178.298 82.8236C178.298 83.3565 174.699 89.7515 173.855 90.1956C172.967 90.6397 163.993 90.4176 163.371 89.9291C162.749 89.485 157.862 87.9751 157.862 87.9751C157.862 87.9751 159.728 81.4913 159.995 81.4025Z" fill="white"/>
<path d="M160.794 80.7809C160.794 80.7809 147.644 77.7166 146.889 74.1639C146.223 71.0108 142.58 77.2725 142.58 77.2725L143.424 85.7992C143.424 85.7992 150.665 89.2631 160.261 89.2631L161.994 86.0212C161.994 86.0212 162.838 81.3582 160.794 80.7809Z" fill="#CBCBCB"/>
<path d="M143.557 213.077C143.557 213.077 145.645 217.784 148.799 220.271C151.954 222.758 154.175 221.381 155.863 225.201C155.863 225.201 131.34 225.423 130.585 225.201C129.785 224.979 134.85 213.921 135.783 213.299C136.716 212.766 143.557 213.077 143.557 213.077Z" fill="#1631A4"/>
<path d="M130.496 212.988C130.496 212.988 138.315 216.452 145.512 215.475C145.512 215.475 156.885 153.568 156.663 151.259C156.441 148.949 147.2 89.2631 147.2 89.2631L122.322 95.1695C122.322 95.1695 125.52 118.085 127.608 118.44C129.696 118.795 130.896 120.128 130.896 120.128C130.896 120.128 139.203 154.812 138.892 157.876C138.581 160.94 130.496 212.988 130.496 212.988Z" fill="#01008A"/>
<path d="M149.377 89.4408C147.866 91.8389 135.205 94.5923 127.697 95.3029C124.898 95.5694 122.855 95.5693 122.322 95.1252C120.323 93.5709 120.767 88.6415 120.456 87.7533C120.145 86.8651 120.456 87.0871 120.678 86.421C120.9 85.7548 121.122 84.4226 120.456 83.5788C120.1 83.1347 119.745 72.7429 119.479 62.4398C119.212 52.4033 119.079 42.4556 119.123 41.7894C119.567 37.837 122.766 36.8156 122.766 36.8156C122.766 36.8156 134.317 38.9028 137.249 42.8997C151.598 62.3954 151.465 86.1545 149.377 89.4408Z" fill="#6DED02"/>
<path d="M110.105 111.424C110.105 111.424 109.216 123.281 110.105 124.125C110.993 124.968 112.326 123.814 113.303 124.125C114.281 124.436 115.347 124.391 115.791 123.947C116.235 123.547 116.546 123.148 117.613 123.192C118.679 123.237 119.656 123.503 120.012 122.926C120.367 122.348 120.811 121.549 121.611 121.416C122.455 121.238 123.166 121.238 123.21 120.35C123.255 119.462 121.344 115.243 121.344 115.243L121.478 117.641C121.478 117.641 123.033 117.463 123.521 116.175C123.965 114.888 117.035 108.048 117.035 108.048L110.105 111.424Z" fill="white"/>
<path d="M109.971 112.933C109.971 112.933 116.546 109.647 118.501 109.647C118.501 109.647 118.768 106.45 117.213 106.094L108.639 109.514C108.639 109.514 108.639 112.045 109.971 112.933Z" fill="#FFD648"/>
<path d="M131.696 57.1107C128.053 63.9054 121.478 77.4503 124.01 80.0704C126.542 82.6906 130.407 81.4915 127.653 82.7794C124.898 84.0673 122.366 84.689 124.454 85.7105C126.542 86.6875 128.186 86.1545 126.098 88.153C124.188 89.9738 124.721 94.3703 127.742 95.3473C124.943 95.6138 122.899 95.6138 122.366 95.1697C120.367 93.6153 120.811 88.6859 120.5 87.7977C120.189 86.9095 120.5 87.1316 120.722 86.4654C120.945 85.7993 121.167 84.467 120.5 83.6232C120.145 83.1791 119.789 72.7873 119.523 62.4843L132.762 45.431C132.762 45.431 135.294 50.2717 131.696 57.1107Z" fill="#09D191"/>
<path d="M132.229 52.2701C131.029 55.2899 129.474 58.3986 127.875 61.4184C127.875 61.4184 127.875 61.4184 127.83 61.4628C123.343 69.8118 118.279 77.7167 118.19 82.5573C118.057 89.2188 118.279 104.762 117.213 106.05C116.147 107.338 108.639 109.47 108.639 109.47C108.639 109.47 102.73 78.2052 103.308 75.8515C103.841 73.4978 115.48 47.5182 119.167 41.7894C122.855 36.105 136.76 40.8568 132.229 52.2701Z" fill="white"/>
<path d="M141.291 159.164L103.796 166.491C101.975 166.846 100.198 165.647 99.8424 163.871L95.0889 139.979C94.7335 138.114 95.933 136.337 97.7988 136.026L136.538 129.01C138.404 128.654 140.181 129.942 140.447 131.807L143.957 155.344C144.224 157.121 143.068 158.808 141.291 159.164Z" fill="white"/>
<path d="M140.447 131.807L139.514 145.219L101.575 152.591L95.0889 139.979C94.7335 138.114 95.933 136.337 97.7988 136.026L136.538 129.01C138.404 128.654 140.181 129.942 140.447 131.807Z" fill="#E5E5E6"/>
<path d="M103.841 149.616L106.817 148.95L108.639 157.299L105.573 157.876L103.841 149.616Z" fill="#1631A4"/>
<path d="M132.895 143.931L135.872 143.265L137.693 151.614L134.583 152.191L132.895 143.931Z" fill="#1631A4"/>
<path d="M162.171 80.7809C162.171 80.7809 163.638 84.2892 161.727 89.2631H160.306C160.306 89.2631 162.482 83.7563 160.839 80.7809H162.171Z" fill="#FFD648"/>
<path d="M127.875 61.4628C123.388 69.8118 118.323 77.7166 118.235 82.5573C118.101 89.2187 118.323 104.762 117.257 106.05C117.257 106.05 115.302 83.7119 113.614 81.98C111.926 80.2924 111.526 79.2266 114.636 78.3828C117.657 77.6278 127.209 62.4842 127.875 61.4628Z" fill="#E5E5E6"/>
<path d="M218.37 204.373C218.37 204.373 218.281 209.036 211.662 212.944C205.042 216.896 203.621 217.118 203.398 219.649L229.654 218.406L236.851 212.633C236.851 212.633 236.096 206.859 235.74 206.637C235.385 206.415 221.346 204.905 221.346 204.905L218.37 204.373Z" fill="#1631A4"/>
<path d="M230.009 99.655V209.524C230.009 209.524 226.055 210.057 221.791 209.524C219.347 209.213 216.815 208.503 214.905 207.17C214.905 207.17 211.839 156.322 212.061 153.79C212.284 151.259 219.303 98.9 219.658 98.8112C220.014 98.678 230.009 99.655 230.009 99.655Z" fill="#1631A4"/>
<path d="M230.009 169.689V209.524C230.009 209.524 226.055 210.057 221.791 209.524C224.19 209.48 224.9 207.748 224.9 207.748C224.9 207.748 218.059 159.919 217.259 157.076C216.504 154.234 221.657 111.557 221.657 111.557L230.009 169.689Z" fill="#002F7A"/>
<path d="M182.557 85.142L182.557 85.1421L182.567 85.1428C182.764 85.159 182.974 85.1762 183.192 85.1942C184.174 85.275 185.331 85.3702 186.365 85.443C186.997 85.4876 187.587 85.524 188.066 85.5438C188.528 85.5628 188.929 85.5686 189.155 85.5403L189.169 85.5386L189.183 85.5361C189.803 85.4234 190.449 84.9922 190.712 84.3963C190.851 84.079 190.883 83.7039 190.718 83.3345C190.557 82.9766 190.24 82.6891 189.811 82.468C189.212 82.1596 189.051 81.7243 189.065 81.493C189.072 81.3788 189.115 81.3225 189.149 81.2968C189.182 81.2726 189.274 81.2261 189.477 81.2698C190.061 81.3948 191.679 81.9361 193.194 82.4632C193.942 82.7235 194.651 82.9756 195.174 83.1626C195.435 83.2561 195.649 83.3333 195.798 83.3871L195.809 83.391C195.811 83.3983 195.814 83.4058 195.817 83.4134C195.87 83.569 195.944 83.7933 196.028 84.0659C196.197 84.6124 196.401 85.3464 196.549 86.1058C196.699 86.872 196.785 87.6326 196.734 88.2434C196.681 88.88 196.497 89.1926 196.276 89.311L196.276 89.311L196.272 89.3135C196.21 89.3473 195.986 89.4346 195.579 89.5672C195.192 89.6932 194.681 89.8473 194.085 90.0166C192.894 90.355 191.372 90.7511 189.837 91.1016C188.3 91.4526 186.761 91.7551 185.53 91.9097C184.913 91.9871 184.388 92.0254 183.986 92.0173C183.785 92.0133 183.627 91.9978 183.51 91.9745C183.395 91.9515 183.352 91.927 183.348 91.9243C183.237 91.839 183.073 91.6102 182.886 91.1825C182.707 90.7714 182.537 90.248 182.379 89.6652C182.064 88.5032 181.812 87.1595 181.635 86.1203C181.552 85.5513 182 85.0863 182.557 85.142Z" fill="white" stroke="black"/>
<path d="M197.534 82.0245C197.534 82.0245 212.55 77.4503 213.039 76.7841C213.527 76.118 224.9 45.2534 225.167 44.7649C225.434 44.2764 227.744 46.0972 227.744 46.0972L221.302 83.1347L198.867 89.2632L197.534 82.0245Z" fill="#CBCBCB"/>
<path d="M194.958 82.5572C194.958 82.5572 196.424 84.8221 196.468 89.7515L198.867 89.263C198.867 89.263 199 83.0013 197.534 82.0243L194.958 82.5572Z" fill="#1631A4"/>
<path d="M231.92 210.723C231.92 210.723 230.809 218.406 224.989 220.627C219.169 222.847 218.37 225.689 218.37 225.689C218.37 225.689 244.892 226.355 245.336 225.689C245.78 225.023 239.739 209.613 239.383 209.524C239.072 209.435 231.92 210.723 231.92 210.723Z" fill="#1631A4"/>
<path d="M241.604 211.611C241.604 211.611 232.897 212.81 226.766 211.611C226.766 211.611 218.281 159.474 218.503 154.634C218.725 149.793 221.702 111.512 221.702 111.512C221.702 111.512 219.703 110.402 219.925 106.805C220.147 103.163 221.791 95.5692 221.791 95.5692L246.314 104.273C246.314 104.273 244.226 122.215 240.05 122.304C240.05 122.304 232.364 153.302 232.408 154.945C232.453 156.632 241.604 211.611 241.604 211.611Z" fill="#01008A"/>
<path d="M251.114 66.7642L251.114 66.7657C250.893 67.6986 250.166 70.1214 249.263 73.1289C248.634 75.2236 247.92 77.6019 247.233 79.9581C246.4 82.8154 245.608 85.6315 245.067 87.8387C244.797 88.9412 244.586 89.9011 244.464 90.6422C244.404 91.0119 244.363 91.3379 244.35 91.6052C244.338 91.8474 244.342 92.1231 244.429 92.3376C244.531 92.5896 244.696 92.8669 244.878 93.1498C244.977 93.3044 245.093 93.479 245.214 93.6618C245.311 93.808 245.412 93.9595 245.51 94.1103C245.969 94.8143 246.473 95.6453 246.86 96.6103C247.599 98.4521 247.924 100.805 246.596 103.687C246.375 103.659 246.055 103.618 245.651 103.565C244.822 103.457 243.637 103.302 242.214 103.113C239.368 102.734 235.573 102.218 231.775 101.669C227.975 101.12 224.176 100.538 221.321 100.027C219.892 99.7717 218.709 99.5356 217.883 99.332C217.467 99.2295 217.157 99.139 216.956 99.063C216.949 99.0603 216.942 99.0576 216.936 99.055C216.939 99.0229 216.942 98.9879 216.946 98.9503C216.968 98.7346 217.001 98.4349 217.045 98.0591C217.133 97.3078 217.266 96.2564 217.444 94.9714L217.444 94.9714L217.444 94.9651C217.677 93.1085 218.01 90.7445 218.387 88.0743C218.442 87.6859 218.498 87.291 218.554 86.8903L218.554 86.8897C219.62 79.2537 221.074 69.399 222.434 61.1275C223.114 56.9911 223.769 53.2547 224.34 50.3908C224.626 48.9584 224.89 47.7492 225.124 46.8195C225.362 45.8703 225.558 45.2639 225.698 44.9974L225.7 44.9945C226.65 43.1584 227.804 42.2689 228.692 41.8328C229.139 41.6131 229.525 41.5051 229.794 41.452C229.929 41.4255 230.034 41.4127 230.102 41.4066C230.136 41.4036 230.161 41.4022 230.175 41.4016L230.189 41.4011C230.189 41.4011 230.189 41.4011 230.189 41.4011C230.19 41.4011 230.19 41.4011 230.19 41.4011L230.192 41.4011L230.187 40.9011C230.192 41.4011 230.192 41.4011 230.192 41.4011L230.193 41.4011L230.195 41.401L230.204 41.401L230.242 41.4006L230.387 41.3995C230.516 41.3987 230.704 41.3977 230.945 41.397C231.426 41.3957 232.117 41.3959 232.953 41.4018C234.626 41.4136 236.877 41.4482 239.197 41.5395C241.519 41.6309 243.899 41.7787 245.832 42.0156C246.799 42.1342 247.644 42.2738 248.308 42.4365C248.993 42.6045 249.409 42.78 249.593 42.9292C249.654 42.9807 249.744 43.094 249.851 43.3066C249.955 43.5152 250.06 43.7892 250.162 44.1278C250.366 44.805 250.548 45.6966 250.706 46.746C251.022 48.8421 251.234 51.5123 251.356 54.2352C251.478 56.9561 251.508 59.718 251.461 61.9936C251.414 64.2915 251.288 66.0375 251.114 66.7642ZM216.777 98.9823C216.777 98.9823 216.778 98.9826 216.779 98.9833C216.778 98.9826 216.777 98.9823 216.777 98.9823Z" fill="white" stroke="black"/>
<path d="M243.115 37.3484L241.604 42.5443L234.763 44.1875L231.298 42.8996L230.454 42.5887C230.454 42.5887 230.409 39.0804 230.409 37.1708C230.409 35.2168 228.055 35.0835 228.055 35.0835L234.097 30.1985L234.407 29.9764L240.894 29.7544L243.115 37.3484Z" fill="white"/>
<path d="M231.609 38.3254C231.653 40.4571 231.475 41.9226 231.342 42.8996L230.498 42.5887C230.498 42.5887 230.454 39.0804 230.454 37.1708C230.454 35.2168 228.099 35.0835 228.099 35.0835L234.141 30.1985C235.029 31.2643 236.273 32.8631 236.273 32.8631C236.273 32.8631 231.564 34.2398 231.609 38.3254Z" fill="#515BD4"/>
<path d="M231.253 42.1891L230.542 42.5888L231.609 43.699L231.253 42.1891Z" fill="#E5E5E6"/>
<path d="M243.115 37.3484L231.253 42.189L229.165 50.6712L243.959 41.2564L243.115 37.3484Z" fill="#CBCBCB"/>
<path d="M230.542 42.5888L230.498 39.3025L227.788 42.0115L230.542 42.5888Z" fill="#E5E5E5"/>
<path d="M185.627 88.7401L185.639 88.7166L185.65 88.6891C185.65 88.6893 185.65 88.6892 185.65 88.689L185.65 88.689L185.65 88.6888L185.65 88.6885L185.651 88.6855L185.659 88.6662C185.667 88.6481 185.679 88.6197 185.696 88.5827C185.73 88.5086 185.782 88.4005 185.853 88.2711C185.996 88.0107 186.212 87.6722 186.504 87.3509C187.085 86.7108 187.924 86.1759 189.096 86.3805C190.213 86.5755 191.565 86.9744 192.851 87.354C193.135 87.4379 193.416 87.5209 193.691 87.6006C194.437 87.8169 195.14 88.0092 195.706 88.1155C195.988 88.1685 196.255 88.2039 196.487 88.2058C196.696 88.2076 196.973 88.1846 197.195 88.032C197.3 87.9603 197.424 87.8392 197.475 87.6515C197.527 87.459 197.476 87.2896 197.416 87.1752C197.312 86.9785 197.12 86.8319 196.981 86.7358C196.733 86.564 196.376 86.3728 196.026 86.1856C195.946 86.1431 195.867 86.1007 195.79 86.0588C195.344 85.8181 194.932 85.581 194.651 85.3485C194.534 85.2521 194.46 85.1723 194.417 85.1113C194.546 85.0863 194.745 85.0769 195.023 85.0937C195.627 85.1301 196.445 85.2781 197.349 85.467C197.738 85.5484 198.15 85.639 198.561 85.7295C199.076 85.8428 199.59 85.9559 200.058 86.0505C200.901 86.2211 201.702 86.356 202.255 86.3435C202.85 86.3299 203.51 86.2908 204.132 86.254C204.529 86.2304 204.911 86.2078 205.252 86.1932C205.704 86.174 206.091 86.1681 206.385 86.1865C206.513 86.1945 206.614 86.2065 206.688 86.2209C206.693 86.2557 206.698 86.2972 206.702 86.3458C206.722 86.5728 206.729 86.8934 206.725 87.2858C206.716 88.067 206.664 89.083 206.598 90.0964C206.532 91.1079 206.451 92.1092 206.388 92.8582C206.356 93.2325 206.328 93.5435 206.308 93.7607C206.307 93.7736 206.306 93.7862 206.305 93.7984L206.214 93.835C205.975 93.9308 205.633 94.0678 205.218 94.2323C204.388 94.5614 203.27 95.0004 202.115 95.4407C200.959 95.8813 199.77 96.3216 198.798 96.6539C198.311 96.8203 197.883 96.9579 197.543 97.0547C197.185 97.1568 196.974 97.1983 196.894 97.2013C196.816 97.2042 196.596 97.1764 196.212 97.0941C195.849 97.0162 195.388 96.9008 194.861 96.7576C193.807 96.4716 192.507 96.0798 191.235 95.6706C189.962 95.2613 188.724 94.8366 187.793 94.4853C187.326 94.3092 186.945 94.1544 186.677 94.0312C186.555 93.975 186.465 93.9295 186.405 93.895C186.391 93.8489 186.373 93.7894 186.353 93.7165C186.31 93.5572 186.258 93.3473 186.203 93.1007C186.092 92.6082 185.967 91.9829 185.86 91.3504C185.753 90.7162 185.666 90.0846 185.626 89.5764C185.606 89.3214 185.6 89.1084 185.607 88.9467C185.613 88.793 185.631 88.7373 185.629 88.7367C185.629 88.7366 185.628 88.7378 185.627 88.7401ZM194.374 85.0301C194.374 85.0302 194.375 85.0315 194.375 85.0338C194.374 85.0312 194.374 85.03 194.374 85.0301ZM194.313 85.1409C194.309 85.143 194.307 85.1439 194.307 85.1439C194.307 85.1438 194.309 85.1427 194.313 85.1409Z" fill="white" stroke="black"/>
<path d="M238.361 91.1728C235.874 90.5955 222.768 93.5265 216.948 94.9032C217.215 92.7715 217.615 89.9737 218.059 86.8206L242.626 62.0401L250.578 59.2867C250.578 59.2867 242.626 82.0688 239.961 84.0228C237.34 85.9769 238.406 87.9753 239.961 88.1973C241.471 88.4638 241.604 91.9277 238.361 91.1728Z" fill="#E5E5E5"/>
<path d="M211.153 93.0949L211.311 84.9415L211.626 84.8155C212.023 84.6568 212.59 84.4296 213.27 84.1557C214.632 83.608 216.451 82.8735 218.276 82.1263C220.101 81.3794 221.935 80.6189 223.329 80.0197C224.024 79.7204 224.614 79.4594 225.039 79.2597C225.251 79.1604 225.428 79.073 225.559 79.0018C225.624 78.9667 225.686 78.9309 225.738 78.8959C225.764 78.8787 225.796 78.8564 225.826 78.8299C225.848 78.8115 225.911 78.7568 225.959 78.6701C225.984 78.6254 226.012 78.5562 226.031 78.5107L226.032 78.5093C226.057 78.4477 226.09 78.3645 226.13 78.2624C226.21 78.0577 226.321 77.77 226.457 77.4113C226.732 76.6934 227.113 75.6863 227.569 74.4786C227.782 73.9138 228.012 73.3051 228.255 72.6613C229.051 70.5514 229.989 68.0658 230.954 65.5205C233.481 58.8614 236.181 51.8392 237.036 50.0423C237.827 48.3795 239.529 47.1284 241.441 46.4398C243.358 45.7491 245.368 45.6672 246.704 46.2056C247.317 46.4525 247.949 47.0325 248.531 47.9097C249.108 48.7791 249.607 49.899 249.97 51.1546C250.7 53.6727 250.865 56.6566 250.101 59.1394C249.72 60.3655 248.534 62.6648 246.92 65.4809C245.316 68.279 243.318 71.5379 241.348 74.6575C239.379 77.7765 237.44 80.7528 235.956 82.9847C235.213 84.1008 234.585 85.0295 234.124 85.6961C233.893 86.0298 233.705 86.2957 233.567 86.486C233.498 86.5813 233.442 86.6551 233.401 86.7077C233.385 86.7285 233.373 86.7433 233.365 86.7533C233.359 86.7566 233.351 86.7606 233.341 86.7653C233.294 86.7891 233.223 86.8202 233.127 86.8589C232.935 86.936 232.667 87.0323 232.33 87.1459C231.656 87.3726 230.73 87.6596 229.633 87.9859C227.441 88.6381 224.586 89.442 221.752 90.2245C218.919 91.0068 216.108 91.767 214.006 92.3316C212.956 92.614 212.082 92.8474 211.471 93.0102C211.355 93.041 211.249 93.0693 211.153 93.0949ZM233.354 86.7673C233.355 86.7665 233.356 86.7658 233.356 86.765L233.354 86.7673Z" fill="white" stroke="black"/>
<path d="M206.375 85.7103C206.375 85.7103 206.864 89.7072 205.797 94.5478L210.862 93.6596C210.862 93.6596 212.906 87.7976 210.817 84.6001L206.375 85.7103Z" fill="#1631A4"/>
<path d="M182.163 64.3939C182.119 64.1718 182.074 63.9942 182.03 63.861C182.074 64.0386 182.119 64.1718 182.163 64.3939Z" fill="#F9A826"/>
<path d="M224.101 17.0534C224.101 17.0534 223.923 31.4865 224.101 33.3961C224.278 35.3057 225.567 35.6165 225.789 35.661C226.055 35.7054 241.382 31.4421 241.382 31.4421L245.958 23.626L239.383 13.6782L228.099 10.7916C228.143 10.7916 224.101 14.4776 224.101 17.0534Z" fill="white"/>
<path d="M225.123 15.0106C225.123 15.0106 226.988 13.545 227.788 15.0106C228.588 16.4761 229.076 20.1621 233.386 20.2509C237.695 20.3397 237.651 23.9369 237.651 23.9369C237.651 23.9369 234.763 9.28173 234.452 9.05968C234.185 8.83763 224.9 7.68298 224.9 7.68298L225.123 15.0106Z" fill="#CBCBCB"/>
<path d="M237.606 23.9367C237.606 23.9367 239.339 21.2721 241.071 22.4267C242.804 23.5814 240.583 28.8661 237.162 29.7099C237.162 29.7099 238.317 35.4831 238.539 35.3943C238.761 35.3055 244.314 33.6179 244.314 33.6179C244.314 33.6179 251.956 25.1357 250.356 17.9858C248.757 10.8359 232.364 2.75333 228.677 3.28624C224.989 3.81916 224.323 7.94924 224.323 7.94924C224.323 7.94924 221.124 7.86042 220.591 9.41476C220.058 11.0135 218.148 19.4957 224.101 21.1833C224.101 21.1833 224.012 15.9874 225.123 14.9215C225.123 14.9215 226.011 12.8787 227.166 13.3672C228.321 13.8557 228.366 20.0286 233.386 20.1619C238.406 20.3839 237.606 23.9367 237.606 23.9367Z" fill="#231F20"/>
<path d="M240.716 23.9368C240.716 23.9368 238.806 22.6045 238.006 26.7346C237.961 26.7346 239.028 23.8924 240.716 23.9368Z" fill="#515BD4"/>
</g>
</svg>
